# xmcd CD database file
#
# Track frame offsets:
#	150
#	16395
#	31589
#	50237
#	69025
#	94909
#	112172
#	125915
#	143583
#	161133
#	178063
#	194779
#	210771
#	227109
#	242903
#	259106
#	279298
#	294643
#	313034
#	329194
#
# Disc length: 4618 seconds
#
# Revision: 0
# Processed by: cddbd v1.5.1PL0 Copyright (c) Steve Scherf et al.
# Submitted via: CDex 1.51
#
DISCID=35120814
DTITLE=Various Artist - Best Of 2002 Disc.1
DYEAR=2002
DGENRE=New Age
TTITLE0=Hey Baby
TTITLE1=California Dream
TTITLE2=First Love
TTITLE3=You Can't Say
TTITLE4=Can't Get You Out Of My Mind
TTITLE5=The Light
TTITLE6=Kissy Kissy
TTITLE7=There You'll be
TTITLE8=Look At Us
TTITLE9=To Be You
TTITLE10=Let's Talk About A Man
TTITLE11=Everybody's Turning Back
TTITLE12=Relations
TTITLE13=Do U Know 2002
TTITLE14=I'm Just Light
TTITLE15=State Of The Nation
TTITLE16=Boom Boom Boom
TTITLE17=World's Flow
TTITLE18=Don't Let Me Down
TTITLE19=Vamos A La Playa 2002
EXTD=YEAR: 2002
EXTT0=
EXTT1=
EXTT2=
EXTT3=
EXTT4=
EXTT5=
EXTT6=
EXTT7=
EXTT8=
EXTT9=
EXTT10=
EXTT11=
EXTT12=
EXTT13=
EXTT14=
EXTT15=
EXTT16=
EXTT17=
EXTT18=
EXTT19=
PLAYORDER=
